  0
SECTION
  2
HEADER
  9
$ACADVER
  1
AC1009
  9
$INSBASE
 10
0.0
 20
0.0
 30
0.0
  9
$EXTMIN
 10
-3.7927287663174551
 20
0.4999988635245245
 30
0.0
  9
$EXTMAX
 10
93.510507017419954
 20
35.78433768365926
 30
0.0
  9
$LIMMIN
 10
0.0
 20
0.0
  9
$LIMMAX
 10
12.0
 20
9.0
  9
$ORTHOMODE
 70
     1
  9
$REGENMODE
 70
     1
  9
$FILLMODE
 70
     1
  9
$QTEXTMODE
 70
     0
  9
$MIRRTEXT
 70
     0
  9
$DRAGMODE
 70
     2
  9
$LTSCALE
 40
1.0
  9
$OSMODE
 70
  1775
  9
$ATTMODE
 70
     1
  9
$TEXTSIZE
 40
0.1
  9
$TRACEWID
 40
0.05
  9
$TEXTSTYLE
  7
SIMPLEX
  9
$CLAYER
  8
0
  9
$CELTYPE
  6
CONTINUOUS
  9
$CECOLOR
 62
   256
  9
$DIMSCALE
 40
1.0
  9
$DIMASZ
 40
0.18
  9
$DIMEXO
 40
0.0625
  9
$DIMDLI
 40
0.38
  9
$DIMRND
 40
0.0
  9
$DIMDLE
 40
0.0
  9
$DIMEXE
 40
0.18
  9
$DIMTP
 40
0.0
  9
$DIMTM
 40
0.0
  9
$DIMTXT
 40
0.18
  9
$DIMCEN
 40
0.09
  9
$DIMTSZ
 40
0.0
  9
$DIMTOL
 70
     0
  9
$DIMLIM
 70
     0
  9
$DIMTIH
 70
     1
  9
$DIMTOH
 70
     1
  9
$DIMSE1
 70
     0
  9
$DIMSE2
 70
     0
  9
$DIMTAD
 70
     0
  9
$DIMZIN
 70
     0
  9
$DIMBLK
  1

  9
$DIMASO
 70
     1
  9
$DIMSHO
 70
     1
  9
$DIMPOST
  1

  9
$DIMAPOST
  1

  9
$DIMALT
 70
     0
  9
$DIMALTD
 70
     2
  9
$DIMALTF
 40
25.399999999999999
  9
$DIMLFAC
 40
1.0
  9
$DIMTOFL
 70
     0
  9
$DIMTVP
 40
0.0
  9
$DIMTIX
 70
     0
  9
$DIMSOXD
 70
     0
  9
$DIMSAH
 70
     0
  9
$DIMBLK1
  1

  9
$DIMBLK2
  1

  9
$DIMSTYLE
  2
STANDARD
  9
$DIMCLRD
 70
     0
  9
$DIMCLRE
 70
     0
  9
$DIMCLRT
 70
     0
  9
$DIMTFAC
 40
1.0
  9
$DIMGAP
 40
0.09
  9
$LUNITS
 70
     2
  9
$LUPREC
 70
     4
  9
$SKETCHINC
 40
0.1
  9
$FILLETRAD
 40
0.0
  9
$AUNITS
 70
     0
  9
$AUPREC
 70
     0
  9
$MENU
  1
.
  9
$ELEVATION
 40
0.0
  9
$PELEVATION
 40
0.0
  9
$THICKNESS
 40
0.0
  9
$LIMCHECK
 70
     0
  9
$BLIPMODE
 70
     0
  9
$CHAMFERA
 40
0.0
  9
$CHAMFERB
 40
0.0
  9
$SKPOLY
 70
     0
  9
$TDCREATE
 40
2458523.273830405
  9
$TDUPDATE
 40
2458556.4118686109
  9
$TDINDWG
 40
3.9046160069
  9
$TDUSRTIMER
 40
3.9046156366
  9
$USRTIMER
 70
     1
  9
$ANGBASE
 50
0.0
  9
$ANGDIR
 70
     0
  9
$PDMODE
 70
     0
  9
$PDSIZE
 40
0.0
  9
$PLINEWID
 40
0.0
  9
$COORDS
 70
     1
  9
$SPLFRAME
 70
     0
  9
$SPLINETYPE
 70
     6
  9
$SPLINESEGS
 70
     8
  9
$ATTDIA
 70
     1
  9
$ATTREQ
 70
     1
  9
$HANDLING
 70
     1
  9
$HANDSEED
  5
FDFE
  9
$SURFTAB1
 70
     6
  9
$SURFTAB2
 70
     6
  9
$SURFTYPE
 70
     6
  9
$SURFU
 70
     6
  9
$SURFV
 70
     6
  9
$UCSNAME
  2

  9
$UCSORG
 10
0.0
 20
0.0
 30
0.0
  9
$UCSXDIR
 10
1.0
 20
0.0
 30
0.0
  9
$UCSYDIR
 10
0.0
 20
1.0
 30
0.0
  9
$PUCSNAME
  2

  9
$PUCSORG
 10
0.0
 20
0.0
 30
0.0
  9
$PUCSXDIR
 10
1.0
 20
0.0
 30
0.0
  9
$PUCSYDIR
 10
0.0
 20
1.0
 30
0.0
  9
$USERI1
 70
     0
  9
$USERI2
 70
     0
  9
$USERI3
 70
     0
  9
$USERI4
 70
     0
  9
$USERI5
 70
     0
  9
$USERR1
 40
0.0
  9
$USERR2
 40
0.0
  9
$USERR3
 40
0.0
  9
$USERR4
 40
0.0
  9
$USERR5
 40
0.0
  9
$WORLDVIEW
 70
     1
  9
$SHADEDGE
 70
     3
  9
$SHADEDIF
 70
    70
  9
$TILEMODE
 70
     1
  9
$MAXACTVP
 70
    64
  9
$PLIMCHECK
 70
     0
  9
$PEXTMIN
 10
1.0000000000000000E+020
 20
1.0000000000000000E+020
 30
1.0000000000000000E+020
  9
$PEXTMAX
 10
-1.0000000000000000E+020
 20
-1.0000000000000000E+020
 30
-1.0000000000000000E+020
  9
$PLIMMIN
 10
0.0
 20
0.0
  9
$PLIMMAX
 10
12.0
 20
9.0
  9
$UNITMODE
 70
     0
  9
$VISRETAIN
 70
     1
  9
$PLINEGEN
 70
     0
  9
$PSLTSCALE
 70
     1
  0
ENDSEC
  0
SECTION
  2
TABLES
  0
TABLE
  2
VPORT
 70
     1
  0
VPORT
  2
*ACTIVE
 70
     0
 10
0.0
 20
0.0
 11
1.0
 21
1.0
 12
28.360587588623108
 22
9.8083684698440727
 13
0.0
 23
0.0
 14
1.0
 24
1.0
 15
0.0
 25
0.0
 16
0.0
 26
0.0
 36
1.0
 17
0.0
 27
0.0
 37
0.0
 40
41.401548534758007
 41
2.489528795811518
 42
50.0
 43
0.0
 44
0.0
 50
0.0
 51
0.0
 71
     0
 72
   100
 73
     1
 74
     1
 75
     0
 76
     1
 77
     0
 78
     0
  0
ENDTAB
  0
TABLE
  2
LTYPE
 70
     2
  0
LTYPE
  2
CONTINUOUS
 70
     0
  3
Solid line
 72
    65
 73
     0
 40
0.0
  0
LTYPE
  2
HIDDEN
 70
     0
  3
Hidden __ __ __ __ __ __ __ __ __ __ __ __ __ _
 72
    65
 73
     2
 40
0.375
 49
0.25
 49
-0.125
  0
ENDTAB
  0
TABLE
  2
LAYER
 70
     9
  0
LAYER
  2
0
 70
     0
 62
     1
  6
CONTINUOUS
  0
LAYER
  2
DEFPOINTS
 70
     0
 62
    82
  6
HIDDEN
  0
LAYER
  2
SKIN_BORDER
 70
     0
 62
     6
  6
CONTINUOUS
  0
LAYER
  2
SKIN_TEXT
 70
     0
 62
    82
  6
CONTINUOUS
  0
LAYER
  2
SKIN_DIVOTS
 70
     0
 62
     4
  6
CONTINUOUS
  0
ENDTAB
  0
TABLE
  2
STYLE
 70
     4
  0
STYLE
  2
SIMPLEX
 70
     0
 40
0.25
 41
1.0
 50
0.0
 71
     0
 42
0.1
  3
simplex
  4

  0
STYLE
  2
SIMPLEX
 70
     0
 40
0.0
 41
1.0
 50
0.0
 71
     0
 42
0.1
  3
SIMPLEX.SHX
  4

  0
STYLE
  2
STANDARD
 70
     0
 40
0.0
 41
1.0
 50
0.0
 71
     0
 42
0.2
  3
txt
  4

  0
ENDTAB
  0
TABLE
  2
VIEW
 70
     0
  0
ENDTAB
  0
TABLE
  2
UCS
 70
     0
  0
ENDTAB
  0
TABLE
  2
APPID
 70
    13
  0
APPID
  2
ACAD
 70
     0
  0
APPID
  2
ACADANNOTATIVE
 70
     0
  0
APPID
  2
ACAD_NAV_VCDISPLAY
 70
     0
  0
APPID
  2
ACAD_PSEXT
 70
     0
  0
APPID
  2
ACAECLAYERSTANDARD
 70
     0
  0
APPID
  2
ACAD_MLEADERVER
 70
     0
  0
APPID
  2
ACAD_DSTYLE_DIMJAG
 70
     0
  0
APPID
  2
ACAD_DSTYLE_DIMTALN
 70
     0
  0
APPID
  2
ACAD_DSTYLE_DIMBREAK
 70
     0
  0
APPID
  2
ACDBDYNAMICBLOCKGUID
 70
     0
  0
APPID
  2
ACCMTRANSPARENCY
 70
     0
  0
APPID
  2
ACAD_DSTYLE_DIMJOGGED_JOGA
 70
     0
  0
APPID
  2
ACAD_EXEMPT_FROM_CAD_STANDARDS
 70
     0
  0
ENDTAB
  0
TABLE
  2
DIMSTYLE
 70
     2
  0
DIMSTYLE
  2
STANDARD
 70
     0
  3

  4

  5

  6

  7

 40
1.0
 41
0.18
 42
0.0625
 43
0.38
 44
0.18
 45
0.0
 46
0.0
 47
0.0
 48
0.0
140
0.18
141
0.09
142
0.0
143
25.399999999999999
144
1.0
145
0.0
146
1.0
147
0.09
 71
     0
 72
     0
 73
     1
 74
     1
 75
     0
 76
     0
 77
     0
 78
     0
170
     0
171
     2
172
     0
173
     0
174
     0
175
     0
176
     0
177
     0
178
     0
  0
ENDTAB
  0
ENDSEC
  0
SECTION
  2
BLOCKS
  0
BLOCK
  8
0
  2
$MODEL_SPACE
 70
     0
 10
0.0
 20
0.0
 30
0.0
  3
$MODEL_SPACE
  1

  0
ENDBLK
  5
FCBD
  8
0
  0
BLOCK
 67
     1
  8
0
  2
$PAPER_SPACE
 70
     0
 10
0.0
 20
0.0
 30
0.0
  3
$PAPER_SPACE
  1

  0
ENDBLK
  5
FCB9
 67
     1
  8
0
  0
ENDSEC
  0
SECTION
  2
ENTITIES
  0
POINT
  5
FD82
  8
SKIN_DIVOTS
 10
9.3582677437272501
 20
0.8149605254315055
 30
0.0
 50
90.0
  0
POINT
  5
FD83
  8
SKIN_DIVOTS
 10
2.6968504457083191
 20
0.8149605254315055
 30
0.0
 50
90.0
  0
POINT
  5
FD84
  8
SKIN_DIVOTS
 10
7.4133858612082673
 20
0.8149605254315055
 30
0.0
 50
90.0
  0
POINT
  5
FD85
  8
SKIN_DIVOTS
 10
12.12992127670821
 20
0.8149605254315019
 30
0.0
 50
90.0
  0
POINT
  5
FD86
  8
SKIN_DIVOTS
 10
16.84645669220907
 20
0.8149605254315019
 30
0.0
 50
90.0
  0
POINT
  5
FD87
  8
SKIN_DIVOTS
 10
21.562992107709469
 20
0.8149605254315019
 30
0.0
 50
90.0
  0
POINT
  5
FD88
  8
SKIN_DIVOTS
 10
26.27952752321033
 20
0.8149605254315019
 30
0.0
 50
90.0
  0
POINT
  5
FD89
  8
SKIN_DIVOTS
 10
30.996062938710281
 20
0.8149605254314984
 30
0.0
 50
90.0
  0
POINT
  5
FD8A
  8
SKIN_DIVOTS
 10
24.33464658557358
 20
20.877951631793511
 30
0.0
 50
90.0
  0
POINT
  5
FD8B
  8
SKIN_DIVOTS
 10
30.996063883592509
 20
20.877951631793501
 30
0.0
 50
90.0
  0
POINT
  5
FD8C
  8
SKIN_DIVOTS
 10
26.27952846809211
 20
20.877951631793511
 30
0.0
 50
90.0
  0
POINT
  5
FD8D
  8
SKIN_DIVOTS
 10
21.562993052591249
 20
20.877951631793511
 30
0.0
 50
90.0
  0
POINT
  5
FD8E
  8
SKIN_DIVOTS
 10
16.846457637091302
 20
20.877951631793511
 30
0.0
 50
90.0
  0
POINT
  5
FD8F
  8
SKIN_DIVOTS
 10
12.12992222158999
 20
20.877951631793511
 30
0.0
 50
90.0
  0
POINT
  5
FD90
  8
SKIN_DIVOTS
 10
7.413386806090501
 20
20.877951631793511
 30
0.0
 50
90.0
  0
POINT
  5
FD91
  8
SKIN_DIVOTS
 10
2.696851390590099
 20
20.877951631793511
 30
0.0
 50
90.0
  0
POINT
  5
FD92
  8
SKIN_DIVOTS
 10
0.8149606889393796
 20
12.33464457700552
 30
0.0
 50
90.0
  0
POINT
  5
FD93
  8
SKIN_DIVOTS
 10
0.8149606889393808
 20
18.996061875024509
 30
0.0
 50
90.0
  0
POINT
  5
FD94
  8
SKIN_DIVOTS
 10
0.8149606889393801
 20
14.921258740598489
 30
0.0
 50
90.0
  0
POINT
  5
FD95
  8
SKIN_DIVOTS
 10
0.8149606889393792
 20
10.83858159045349
 30
0.0
 50
90.0
  0
POINT
  5
FD96
  8
SKIN_DIVOTS
 10
0.8149606889393785
 20
6.7716524717454858
 30
0.0
 50
90.0
  0
POINT
  5
FD97
  8
SKIN_DIVOTS
 10
0.8149606889393778
 20
2.6968493373194948
 30
0.0
 50
90.0
  0
POINT
  5
FD98
  8
SKIN_DIVOTS
 10
32.877953640361461
 20
4.2291455520834758
 30
0.0
 50
90.0
  0
POINT
  5
FD99
  8
SKIN_DIVOTS
 10
32.877953640361461
 20
2.2606416224084809
 30
0.0
 50
90.0
  0
POINT
  5
FD9A
  8
SKIN_DIVOTS
 10
32.877953640361461
 20
19.432283290722491
 30
0.0
 50
90.0
  0
POINT
  5
FD9B
  8
SKIN_DIVOTS
 10
32.877953640361461
 20
17.463779361048491
 30
0.0
 50
90.0
  0
POINT
  5
FD9C
  8
SKIN_DIVOTS
 10
32.877953640361461
 20
9.3582675802194881
 30
0.0
 50
90.0
  0
POINT
  5
FD9D
  8
SKIN_DIVOTS
 10
32.877953640361461
 20
6.7716534166275126
 30
0.0
 50
90.0
  0
POINT
  5
FD9E
  8
SKIN_DIVOTS
 10
32.877953640361461
 20
10.854330566772481
 30
0.0
 50
90.0
  0
POINT
  5
FD9F
  8
SKIN_DIVOTS
 10
32.877953640361461
 20
14.921259685480489
 30
0.0
 50
90.0
  0
TEXT
  5
FDB2
  8
SKIN_TEXT
  6
CONTINUOUS
 10
32.442914269109387
 20
20.942912260541469
 30
0.0
 40
0.25
  1
2794 PKT1 2SI
 50
270.0
  7
SIMPLEX
1001
ACADANNOTATIVE
1000
AnnotativeData
1002
{
1070
     1
1070
     0
1002
}
  0
LINE
  5
FDB3
  8
SKIN_BORDER
 10
0.5000000601909865
 20
21.192912260541512
 30
0.0
 11
0.5000000601909828
 21
0.4999998966845034
 31
0.0
  0
LINE
  5
FDB4
  8
SKIN_BORDER
 10
0.5000000601909828
 20
0.4999998966845034
 30
0.0
 11
33.192914269109387
 21
0.4999998966844963
 31
0.0
  0
LINE
  5
FDB5
  8
SKIN_BORDER
 10
33.192914269109387
 20
0.4999998966844963
 30
0.0
 11
33.192914269109401
 21
21.192912260541501
 31
0.0
  0
LINE
  5
FDB6
  8
SKIN_BORDER
 10
33.192914269109401
 20
21.192912260541501
 30
0.0
 11
0.5000000601909865
 21
21.192912260541512
 31
0.0
  0
LINE
  5
FDB7
  8
SKIN_BORDER
 10
32.208662304272082
 20
20.208660295704501
 30
0.0
 11
32.208662304272082
 21
1.4842518615214959
 31
0.0
  0
LINE
  5
FDB8
  8
SKIN_BORDER
 10
32.208662304272082
 20
1.4842518615214959
 30
0.0
 11
1.4842520250282949
 21
1.484251861521503
 31
0.0
  0
LINE
  5
FDB9
  8
SKIN_BORDER
 10
1.4842520250282949
 20
1.484251861521503
 30
0.0
 11
1.484252025028298
 21
20.208660295704512
 31
0.0
  0
LINE
  5
FDBA
  8
SKIN_BORDER
 10
1.484252025028298
 20
20.208660295704512
 30
0.0
 11
32.208662304272082
 21
20.208660295704501
 31
0.0
  0
ENDSEC
  0
EOF
